<svg id="Layer_1" data-name="Layer 1" xmlns="http://www.w3.org/2000/svg" viewBox="0 0 85.04 85.04"><defs><style>.cls-1{fill:#fff;}</style></defs><g id="Group_32" data-name="Group 32"><path id="Path_1987" data-name="Path 1987" class="cls-1" d="M33.62,42.09a4.86,4.86,0,1,0-4.87,4.84,4.87,4.87,0,0,0,4.87-4.84Z"/><path id="Path_1988" data-name="Path 1988" class="cls-1" d="M45.8,35.4l-17-17-.31.31L10.14,37,5.08,42l0,0L28.84,66s4.44-5.83.07-10.2c-2.67-2.67-9.16-9.19-13.74-13.8L28.7,28.57c3,3,6.31,6.34,7,7C41.57,41.47,45.8,35.4,45.8,35.4Z"/><path id="Path_1989" data-name="Path 1989" class="cls-1" d="M79.78,42.12,74.86,37.2,56.1,18.37s-4.34,5.69-.25,9.81c2.57,2.57,9.26,9.33,14,14L56.06,56c-2.08-2.08-4.44-4.47-6.41-6.45C45.07,44.9,39,49.06,39,49.06L55.82,66l.52-.52Z"/><path id="Path_1990" data-name="Path 1990" class="cls-1" d="M59.57,45.56a4.83,4.83,0,1,0-6.84,0h0a4.83,4.83,0,0,0,6.83,0Z"/></g></svg>