<svg id="Layer_1" data-name="Layer 1" xmlns="http://www.w3.org/2000/svg" viewBox="0 0 85.04 85.04"><defs><style>.cls-1{fill:#fff;}</style></defs><path id="cap" class="cls-1" d="M66.91,31.75,51.65,25.93a.72.72,0,0,0-.51,1.34l13.5,5.15L55.3,36,43.54,30.66A.71.71,0,0,0,43,32L53.41,36.7,43.25,40.57l-21.4-8.15,21.4-8.16,5.27,2A.72.72,0,1,0,49,24.93L43.5,22.82a.74.74,0,0,0-.51,0l-23.4,8.93a.7.7,0,0,0-.46.67v3.27a.71.71,0,0,0,.46.67l7.31,2.79v2.48a.72.72,0,1,0,1.43,0h0V39.69L43,45.28a.65.65,0,0,0,.51,0l11.06-4.21V52.41a24.29,24.29,0,0,1-26.23-2.33V44.49a.72.72,0,0,0-1.43,0h0v5.94a.7.7,0,0,0,.26.56,25.71,25.71,0,0,0,27.4,3v2.9a2.72,2.72,0,1,0,1.43,0V53.26A26.17,26.17,0,0,0,59.33,51a.72.72,0,0,0,.27-.56V39.15l7.31-2.79a.71.71,0,0,0,.46-.67V32.42a.7.7,0,0,0-.46-.67ZM56.56,59.54a1.29,1.29,0,1,1-1.29-1.29A1.29,1.29,0,0,1,56.56,59.54Zm-36-26.08,22,8.37v1.74l-22-8.37ZM44,43.57V41.84l10.59-4v1.74Zm14.2,6.51A22.9,22.9,0,0,1,56,51.59V40.52l2.18-.83ZM56,39V37.25l9.95-3.79V35.2Z"/></svg>