<svg id="Layer_1" data-name="Layer 1" xmlns="http://www.w3.org/2000/svg" viewBox="0 0 141.73 141.73"><defs><style>.cls-1{fill:#fff;}.cls-2{fill:#1b1b1b;}</style></defs><g id="Group_86" data-name="Group 86"><circle id="Ellipse_112-2" data-name="Ellipse 112-2" class="cls-1" cx="70.87" cy="70.87" r="28.74"/><path id="linkedin" class="cls-2" d="M63.92,81.5H58.47V65.09h5.45ZM61.19,62.85h0a3.12,3.12,0,1,1,3.13-3.1A3.12,3.12,0,0,1,61.16,62.85ZM83.59,81.5H78.13V72.72c0-2.2-.79-3.71-2.76-3.71a3,3,0,0,0-2.8,2,3.72,3.72,0,0,0-.18,1.33V81.5H66.94s.07-14.87,0-16.41h5.45v2.32a5.41,5.41,0,0,1,4.92-2.7c3.58,0,6.28,2.34,6.28,7.38Z"/></g></svg>