<svg id="Layer_1" data-name="Layer 1" xmlns="http://www.w3.org/2000/svg" viewBox="0 0 141.73 141.73"><defs><style>.cls-1{fill:#fff;}.cls-2{fill:#1b1b1b;}</style></defs><g id="Group_88" data-name="Group 88"><circle id="Ellipse_114-2" data-name="Ellipse 114-2" class="cls-1" cx="70.87" cy="70.87" r="28.74"/><path id="youtube" class="cls-2" d="M86.44,63.05a4.09,4.09,0,0,0-2.86-2.86c-2.54-.7-12.71-.7-12.71-.7s-10.17,0-12.71.67a4.16,4.16,0,0,0-2.87,2.89,45.91,45.91,0,0,0,0,15.63,4.06,4.06,0,0,0,2.87,2.86c2.56.7,12.71.7,12.71.7s10.17,0,12.71-.67a4.05,4.05,0,0,0,2.86-2.86,42.61,42.61,0,0,0,.67-7.81,40.37,40.37,0,0,0-.67-7.84ZM67.63,75.74V66l8.45,4.87Z"/></g></svg>