<svg id="Layer_1" data-name="Layer 1" xmlns="http://www.w3.org/2000/svg" viewBox="0 0 141.73 141.73"><defs><style>.cls-1{fill:#fff;}.cls-2{fill:#1b1b1b;}</style></defs><g id="Group_87" data-name="Group 87"><circle id="Ellipse_113-2" data-name="Ellipse 113-2" class="cls-1" cx="70.87" cy="70.87" r="28.74"/><path id="twitter" class="cls-2" d="M85.17,62a12.11,12.11,0,0,1-3.38.92,5.85,5.85,0,0,0,2.58-3.24,11.84,11.84,0,0,1-3.72,1.42,5.86,5.86,0,0,0-10.14,4,6,6,0,0,0,.13,1.34,16.55,16.55,0,0,1-12.08-6.14,5.86,5.86,0,0,0,1.8,7.84,5.71,5.71,0,0,1-2.65-.72v.06a5.89,5.89,0,0,0,4.7,5.77,6.19,6.19,0,0,1-1.54.19,5.1,5.1,0,0,1-1.11-.1,5.91,5.91,0,0,0,5.48,4.08A11.71,11.71,0,0,1,58,79.93a11.1,11.1,0,0,1-1.41-.07,16.61,16.61,0,0,0,9,2.63c10.79,0,16.69-8.94,16.69-16.69,0-.26,0-.51,0-.76A11.8,11.8,0,0,0,85.17,62Z"/></g></svg>