<svg id="Layer_1" data-name="Layer 1" xmlns="http://www.w3.org/2000/svg" viewBox="0 0 141.73 141.73"><defs><style>.cls-1{fill:#fff;}.cls-2{fill:#1b1b1b;}</style></defs><g id="Group_85" data-name="Group 85"><circle id="Ellipse_111-2" data-name="Ellipse 111-2" class="cls-1" cx="70.87" cy="70.87" r="28.74"/><g id="instagram"><path id="Path_29" data-name="Path 29" class="cls-2" d="M85.4,64.85a10.46,10.46,0,0,0-.68-3.55A7.5,7.5,0,0,0,80.45,57a11.07,11.07,0,0,0-3.55-.68c-1.56-.07-2.06-.09-6-.09s-4.46,0-6,.09a10.45,10.45,0,0,0-3.54.68,7,7,0,0,0-2.6,1.69A7.11,7.11,0,0,0,57,61.29a10.55,10.55,0,0,0-.68,3.55c-.08,1.56-.09,2.06-.09,6s0,4.46.08,6A11.07,11.07,0,0,0,57,80.44a7.47,7.47,0,0,0,4.28,4.27,10.45,10.45,0,0,0,3.54.68c1.56.07,2.06.09,6,.09s4.46,0,6-.09a10.45,10.45,0,0,0,3.54-.68,7.47,7.47,0,0,0,4.28-4.27,11.07,11.07,0,0,0,.68-3.55c.06-1.56.08-2,.08-6s0-4.47-.07-6ZM82.77,76.78a8.12,8.12,0,0,1-.5,2.71,4.89,4.89,0,0,1-2.77,2.78,8.13,8.13,0,0,1-2.72.5c-1.54.06-2,.08-5.9.08s-4.36,0-5.9-.08a8.12,8.12,0,0,1-2.71-.5,4.58,4.58,0,0,1-1.68-1.1A4.65,4.65,0,0,1,59.5,79.5a8.13,8.13,0,0,1-.5-2.72c-.07-1.54-.08-2-.08-5.9s0-4.36.08-5.9a8.12,8.12,0,0,1,.5-2.71,4.58,4.58,0,0,1,1.1-1.68,4.69,4.69,0,0,1,1.68-1.09A8.12,8.12,0,0,1,65,59c1.54-.06,2-.08,5.9-.08s4.37,0,5.9.08a8,8,0,0,1,2.71.5,4.81,4.81,0,0,1,2.77,2.77,8,8,0,0,1,.5,2.71c.07,1.54.08,2,.08,5.9s0,4.35-.08,5.9Z"/><path id="Path_30" data-name="Path 30" class="cls-2" d="M70.87,63.36a7.51,7.51,0,1,0,7.51,7.51h0A7.51,7.51,0,0,0,70.87,63.36Zm0,12.38a4.87,4.87,0,1,1,4.87-4.87h0A4.87,4.87,0,0,1,70.87,75.74Z"/><path id="Path_31" data-name="Path 31" class="cls-2" d="M80.43,63.06a1.76,1.76,0,1,1-1.76-1.75,1.76,1.76,0,0,1,1.76,1.75Z"/></g></g></svg>