<svg id="Layer_1" data-name="Layer 1" xmlns="http://www.w3.org/2000/svg" viewBox="0 0 85.04 85.04"><defs><style>.cls-1{fill:#fff;}</style></defs><path id="book-open-backwards" class="cls-1" d="M65.8,28.94V26.73a.51.51,0,0,0-.51-.51h-.07l-2.68.37v-2A.51.51,0,0,0,62,24l-.13,0-20.2,5.32a.52.52,0,0,0-.35-.14H19.28A1.78,1.78,0,0,0,17.5,31V59.21A1.79,1.79,0,0,0,19.28,61H65.75a1.79,1.79,0,0,0,1.79-1.79V30.73A1.79,1.79,0,0,0,65.8,28.94Zm-1-1.62V56.77L49.6,58.84l12.56-3.31a.5.5,0,0,0,.38-.49V27.62ZM61.51,54.64,41.85,59.82V30.39l19.66-5.17Zm-43,4.57V31a.76.76,0,0,1,.77-.76H38.65V54.88a.51.51,0,0,0,.48.54.51.51,0,0,0,.54-.48.06.06,0,0,0,0-.06V30.26h1.16V60H39.67V58.16a.51.51,0,0,0-1,0V60H19.28A.76.76,0,0,1,18.52,59.21Zm48,0a.76.76,0,0,1-.77.76H48.89l16.47-2.25a.51.51,0,0,0,.44-.5V30a.77.77,0,0,1,.72.76Zm-22-22.6a.51.51,0,0,1,.36-.64l13.41-3.73a.51.51,0,0,1,.61.4.51.51,0,0,1-.33.59L45.11,37a.51.51,0,0,1-.63-.35Zm12.28.31a.5.5,0,0,1-.35.63l-9.33,2.6a.51.51,0,0,1-.28-1l9.33-2.59A.5.5,0,0,1,56.76,36.92Z"/></svg>