<svg id="Layer_1" data-name="Layer 1" xmlns="http://www.w3.org/2000/svg" viewBox="0 0 141.73 141.73"><defs><style>.cls-1{fill:#fff;}.cls-2{fill:#4fb963;}</style></defs><g id="Group_28" data-name="Group 28"><path id="Path_1" data-name="Path 1" class="cls-1" d="M63.82,79.24V61.69a.46.46,0,0,1,.21-.42,1.06,1.06,0,0,1,.57-.17,1.1,1.1,0,0,1,.59.17.55.55,0,0,1,.23.42V70a3.67,3.67,0,0,1,3.29-1.9,4.15,4.15,0,0,1,3.12,1.35,4.58,4.58,0,0,1,1.29,3.25v2.7a4.73,4.73,0,0,1-1.31,3.27,4.1,4.1,0,0,1-3.06,1.41,4,4,0,0,1-2-.57,3.32,3.32,0,0,1-1.33-1.35v1.09a.59.59,0,0,1-.21.45.75.75,0,0,1-.55.2.85.85,0,0,1-.55-.2A.5.5,0,0,1,63.82,79.24Zm1.61-3.13a2.37,2.37,0,0,0,.92,1.55,2.93,2.93,0,0,0,2.09.88,2.83,2.83,0,0,0,2.15-1,3.2,3.2,0,0,0,.92-2.21V72.67a3.22,3.22,0,0,0-3.09-3.12,3,3,0,0,0-3,3.07v3.49Z"/><path id="Path_2" data-name="Path 2" class="cls-1" d="M76.25,64.45a1,1,0,0,1-.31-.73.93.93,0,0,1,.31-.7,1.13,1.13,0,0,1,1.53,0,1,1,0,0,1,.31.7,1.06,1.06,0,0,1-.31.73,1.1,1.1,0,0,1-.75.31A1,1,0,0,1,76.25,64.45Zm0,14.79V68.79a.45.45,0,0,1,.21-.41A1,1,0,0,1,77,68.2a1,1,0,0,1,.59.18.51.51,0,0,1,.23.41V79.22a.54.54,0,0,1-.25.45.8.8,0,0,1-.57.2.87.87,0,0,1-.55-.2.51.51,0,0,1-.23-.43Z"/><path id="Path_3" data-name="Path 3" class="cls-1" d="M81.4,76.25v-13a.45.45,0,0,1,.25-.41.9.9,0,0,1,.55-.17.91.91,0,0,1,.57.17.53.53,0,0,1,.25.41V68.2h3.17a.58.58,0,0,1,.41.2.78.78,0,0,1,0,1,.48.48,0,0,1-.41.19H83v6.66a2.31,2.31,0,0,0,.51,1.69,2.68,2.68,0,0,0,1.78.47H86a.74.74,0,0,1,.74.75.78.78,0,0,1-.21.52.72.72,0,0,1-.53.23h-.69C82.69,79.87,81.4,78.68,81.4,76.25Z"/><path id="Path_4" data-name="Path 4" class="cls-1" d="M89.24,79.24V61.65a.48.48,0,0,1,.22-.41.94.94,0,0,1,.56-.18,1,1,0,0,1,.59.18.52.52,0,0,1,.24.41v12l6-5.33a1,1,0,0,1,.37-.16.82.82,0,0,1,.55.24.67.67,0,0,1,.25.53.55.55,0,0,1-.17.45l-3.62,3.17,4.27,6.24a.74.74,0,0,1,.09.36.77.77,0,0,1-.27.54.83.83,0,0,1-.59.28.59.59,0,0,1-.49-.3l-4.15-6.1-2.27,2v3.68a.58.58,0,0,1-.24.43.82.82,0,0,1-.58.2.85.85,0,0,1-.55-.2A.65.65,0,0,1,89.24,79.24Z"/><path id="Path_5" data-name="Path 5" class="cls-1" d="M100.87,75.41V68.83a.5.5,0,0,1,.24-.41.93.93,0,0,1,.58-.2,1,1,0,0,1,.55.2.63.63,0,0,1,.26.41v6.56a3.07,3.07,0,0,0,.92,2.19,2.93,2.93,0,0,0,4.15.19l.19-.19a3.18,3.18,0,0,0,.92-2.19v-6.6a.46.46,0,0,1,.26-.41,1,1,0,0,1,.56-.17.9.9,0,0,1,.55.17.54.54,0,0,1,.24.41v6.6a4.47,4.47,0,0,1-1.41,3.25,4.67,4.67,0,0,1-6.61,0h0A4.4,4.4,0,0,1,100.87,75.41Z"/><path id="Path_6" data-name="Path 6" class="cls-1" d="M113.71,79.24V61.69a.47.47,0,0,1,.22-.42,1,1,0,0,1,.56-.17,1.1,1.1,0,0,1,.59.17.56.56,0,0,1,.24.42V70a3.66,3.66,0,0,1,3.26-1.9,4.15,4.15,0,0,1,3.12,1.35A4.58,4.58,0,0,1,123,72.67v2.7a4.73,4.73,0,0,1-1.31,3.27,4.08,4.08,0,0,1-3.06,1.41,4,4,0,0,1-2.05-.57,3.26,3.26,0,0,1-1.33-1.35v1.09a.59.59,0,0,1-.22.45.75.75,0,0,1-.55.2.87.87,0,0,1-.55-.2A.63.63,0,0,1,113.71,79.24Zm1.61-3.13a2.37,2.37,0,0,0,.92,1.55,2.93,2.93,0,0,0,2.09.88,2.81,2.81,0,0,0,2.15-1,3.2,3.2,0,0,0,.92-2.21V72.67a3,3,0,0,0-.92-2.16,2.92,2.92,0,0,0-2.17-1,3,3,0,0,0-3,3.07v0Z"/><path id="Path_7" data-name="Path 7" class="cls-2" d="M31.09,70.81a2.74,2.74,0,1,0-2.75,2.73,2.74,2.74,0,0,0,2.75-2.73Z"/><path id="Path_8" data-name="Path 8" class="cls-2" d="M38,67l-9.57-9.61-.17.18L17.84,67.91,15,70.77l0,0L28.39,84.31s2.51-3.29,0-5.75l-7.75-7.79,7.63-7.6c1.69,1.69,3.57,3.59,3.94,3.94C35.58,70.46,38,67,38,67Z"/><path id="Path_9" data-name="Path 9" class="cls-2" d="M57.15,70.83l-2.78-2.78L43.78,57.42s-2.45,3.21-.14,5.54c1.45,1.45,5.23,5.26,7.89,7.91l-7.77,7.77L40.14,75c-2.59-2.61-6-.26-6-.26l9.51,9.55.29-.29Z"/><path id="Path_10" data-name="Path 10" class="cls-2" d="M45.73,72.76a2.72,2.72,0,1,0-3.85,0,2.71,2.71,0,0,0,3.85,0Z"/><path id="Path_11" data-name="Path 11" class="cls-1" d="M125.4,70.79a1.35,1.35,0,0,1-1.35-1.36,1.34,1.34,0,0,1,1.35-1.34,1.35,1.35,0,0,1,0,2.7Zm0-2.49a1.14,1.14,0,1,0,1.13,1.14,1.14,1.14,0,0,0-1.13-1.14Z"/><path id="Path_12" data-name="Path 12" class="cls-1" d="M125.44,69.57h-.36v.61h-.19V68.69h.49a.6.6,0,0,1,.39.12.39.39,0,0,1,.14.33.41.41,0,0,1-.08.24.5.5,0,0,1-.22.16l.35.62v0h-.19Zm-.36-.17h.3a.32.32,0,0,0,.23-.08.22.22,0,0,0,.08-.2.24.24,0,0,0-.08-.21.29.29,0,0,0-.23-.08h-.3Z"/></g></svg>