<svg id="Layer_1" data-name="Layer 1" xmlns="http://www.w3.org/2000/svg" xmlns:xlink="http://www.w3.org/1999/xlink" viewBox="0 0 141.73 141.73"><defs><style>.cls-1{opacity:0.1;isolation:isolate;fill:url(#radial-gradient);}</style><radialGradient id="radial-gradient" cx="-2247.02" cy="3700.27" r="0.25" gradientTransform="matrix(540.77, 0, 0, -540.6, 1215180.03, 2000450.92)" gradientUnits="userSpaceOnUse"><stop offset="0" stop-color="#1fb78a"/><stop offset="0.03" stop-color="#1fb78a"/><stop offset="0.12" stop-color="#00b486"/><stop offset="0.36" stop-color="#009c73"/><stop offset="0.6"/><stop offset="0.77"/><stop offset="1" stop-color="#061613"/><stop offset="1"/></radialGradient></defs><path id="Path_2586" data-name="Path 2586" class="cls-1" d="M103.43,66.67A27.5,27.5,0,0,0,84,23.44V9.51H71.58V23.26H63.1V9.51H50.64V23.26H29.42V38.83H44.24v63.38H29.42v15.57H50.65v13.76H63.11V117.78h8.48v13.76H84.05V117.78h5.22a27.51,27.51,0,0,0,14.16-51.11ZM81,38.83a12,12,0,0,1,0,23.91H59.82V38.85H81Zm8.3,63.38H59.82V78.31H89.27a12,12,0,0,1,.11,23.9Z"/></svg>