<svg id="Layer_1" data-name="Layer 1" xmlns="http://www.w3.org/2000/svg" xmlns:xlink="http://www.w3.org/1999/xlink" viewBox="0 0 141.73 141.73"><defs><style>.cls-1{opacity:0.08;}.cls-2{fill:url(#radial-gradient);}.cls-3{fill:url(#radial-gradient-2);}.cls-4{fill:url(#radial-gradient-3);}.cls-5{fill:url(#radial-gradient-4);}.cls-6{fill:url(#radial-gradient-5);}.cls-7{fill:url(#radial-gradient-6);}.cls-8{fill:url(#radial-gradient-7);}.cls-9{fill:url(#radial-gradient-8);}.cls-10{fill:url(#radial-gradient-9);}.cls-11{fill:url(#radial-gradient-10);}.cls-12{fill:url(#radial-gradient-11);}.cls-13{fill:url(#radial-gradient-12);}.cls-14{fill:url(#radial-gradient-13);}.cls-15{fill:url(#radial-gradient-14);}.cls-16{fill:url(#radial-gradient-15);}.cls-17{fill:url(#radial-gradient-16);}.cls-18{fill:url(#radial-gradient-17);}.cls-19{fill:url(#radial-gradient-18);}.cls-20{fill:url(#radial-gradient-19);}.cls-21{fill:url(#radial-gradient-20);}.cls-22{fill:url(#radial-gradient-21);}.cls-23{fill:url(#radial-gradient-22);}.cls-24{fill:url(#radial-gradient-23);}.cls-25{fill:url(#radial-gradient-24);}.cls-26{fill:url(#radial-gradient-25);}.cls-27{fill:url(#radial-gradient-26);}.cls-28{fill:url(#radial-gradient-27);}.cls-29{fill:url(#radial-gradient-28);}.cls-30{fill:url(#radial-gradient-29);}.cls-31{fill:url(#radial-gradient-30);}.cls-32{fill:url(#radial-gradient-31);}.cls-33{fill:url(#radial-gradient-32);}.cls-34{opacity:0.6;}.cls-35{fill:url(#radial-gradient-33);}.cls-36{opacity:0.1;isolation:isolate;fill:url(#radial-gradient-34);}</style><radialGradient id="radial-gradient" cx="-1926.57" cy="3738.39" r="0.41" gradientTransform="matrix(-93.79, 357.45, 357.62, 93.89, -1520317.36, 336017.22)" gradientUnits="userSpaceOnUse"><stop offset="0.22" stop-color="#489dd6"/><stop offset="0.31" stop-color="#0a81c5"/><stop offset="0.41" stop-color="#015f93"/><stop offset="0.51" stop-color="#054366"/><stop offset="0.61" stop-color="#002a41"/><stop offset="0.71" stop-color="#071a25"/><stop offset="0.81" stop-color="#090f13"/><stop offset="0.9" stop-color="#030606"/><stop offset="1"/></radialGradient><radialGradient id="radial-gradient-2" cx="-1918.85" cy="3747.37" r="0.5" gradientTransform="matrix(-76.19, 290.22, 290.41, 76.23, -1237061.63, 269099.78)" xlink:href="#radial-gradient"/><radialGradient id="radial-gradient-3" cx="-1929.13" cy="3732.96" r="0.35" gradientTransform="matrix(-109.55, 417.48, 417.64, 109.66, -1773089.95, 394492.98)" xlink:href="#radial-gradient"/><radialGradient id="radial-gradient-4" cx="-1924.97" cy="3761.54" r="0.65" gradientTransform="matrix(-58.34, 222.49, 222.49, 58.44, -952014.79, 207256.85)" xlink:href="#radial-gradient"/><radialGradient id="radial-gradient-5" cx="-1901.71" cy="3772.64" r="0.79" gradientTransform="matrix(-48.47, 185.09, 185.24, 48.62, -793552.25, 166181.07)" xlink:href="#radial-gradient"/><radialGradient id="radial-gradient-6" cx="-1845.59" cy="3877.34" r="1.93" gradientTransform="matrix(-19.78, 75.29, 75.22, 19.78, -330656.84, 59838.89)" xlink:href="#radial-gradient"/><radialGradient id="radial-gradient-7" cx="-1920.48" cy="3743.59" r="0.46" gradientTransform="matrix(-82.88, 315.77, 315.98, 82.94, -1344643.26, 293807.75)" xlink:href="#radial-gradient"/><radialGradient id="radial-gradient-8" cx="-1904.79" cy="3781.64" r="0.86" gradientTransform="matrix(-44.3, 168.59, 168.71, 44.28, -724969.86, 151537.15)" xlink:href="#radial-gradient"/><radialGradient id="radial-gradient-9" cx="-594.32" cy="6443.36" r="29.07" gradientTransform="matrix(-1.31, 5, 5.01, 1.31, -35574.08, -7837.75)" xlink:href="#radial-gradient"/><radialGradient id="radial-gradient-10" cx="-1377.72" cy="4830.27" r="11.97" gradientTransform="matrix(-3.18, 12.14, 12.15, 3.19, -65602.01, -1045.65)" xlink:href="#radial-gradient"/><radialGradient id="radial-gradient-11" cx="-1920.82" cy="3756" r="0.59" gradientTransform="matrix(-64.25, 245.02, 245.06, 64.36, -1046566.56, 227270.91)" xlink:href="#radial-gradient"/><radialGradient id="radial-gradient-12" cx="-1436.25" cy="5429.41" r="0.07" gradientTransform="matrix(-2.5, 9.51, 9.52, 2.5, -55238.49, 155.41)" xlink:href="#radial-gradient"/><radialGradient id="radial-gradient-13" cx="-1353.26" cy="5427.88" r="0.07" gradientTransform="matrix(-2.49, 9.51, 9.52, 2.5, -55008.96, -632.18)" xlink:href="#radial-gradient"/><radialGradient id="radial-gradient-14" cx="-1768.19" cy="4233.15" r="5.77" gradientTransform="matrix(-6.61, 25.22, 25.23, 6.62, -121207.99, 14956.97)" xlink:href="#radial-gradient"/><radialGradient id="radial-gradient-15" cx="-1883.43" cy="3809.18" r="1.18" gradientTransform="matrix(-32.18, 122.79, 122.9, 32.25, -531295.41, 106053.8)" xlink:href="#radial-gradient"/><radialGradient id="radial-gradient-16" cx="-300.17" cy="6897" r="34.92" gradientTransform="matrix(-1.09, 4.17, 4.16, 1.09, -31548.95, -8691.84)" xlink:href="#radial-gradient"/><radialGradient id="radial-gradient-17" cx="-616.1" cy="6341.82" r="28.9" gradientTransform="matrix(-1.32, 5.03, 5.04, 1.32, -35287.79, -7623.08)" xlink:href="#radial-gradient"/><radialGradient id="radial-gradient-18" cx="-1381.97" cy="4802.52" r="12.03" gradientTransform="matrix(-3.18, 12.08, 12.09, 3.17, -64955.59, -913.18)" xlink:href="#radial-gradient"/><radialGradient id="radial-gradient-19" cx="-1923.52" cy="3755.37" r="0.59" gradientTransform="matrix(-64.24, 245.02, 245.03, 64.36, -1046455.66, 227966.29)" xlink:href="#radial-gradient"/><radialGradient id="radial-gradient-20" cx="-1541.68" cy="5449.65" r="0.07" gradientTransform="matrix(-2.5, 9.51, 9.52, 2.5, -55593.8, 1128.87)" xlink:href="#radial-gradient"/><radialGradient id="radial-gradient-21" cx="-1439.72" cy="5450.01" r="0.07" gradientTransform="matrix(-2.49, 9.51, 9.52, 2.5, -55348.32, 159.84)" xlink:href="#radial-gradient"/><radialGradient id="radial-gradient-22" cx="-1801.8" cy="4240.15" r="5.77" gradientTransform="matrix(-6.62, 25.22, 25.21, 6.62, -121559.96, 15751.8)" xlink:href="#radial-gradient"/><radialGradient id="radial-gradient-23" cx="-1884.03" cy="3811.89" r="1.18" gradientTransform="matrix(-32.18, 122.74, 122.89, 32.24, -531580.85, 105989.96)" xlink:href="#radial-gradient"/><radialGradient id="radial-gradient-24" cx="-289.08" cy="7002.3" r="34.92" gradientTransform="matrix(-1.09, 4.16, 4.16, 1.09, -31971.91, -8847.12)" xlink:href="#radial-gradient"/><radialGradient id="radial-gradient-25" cx="-1923.22" cy="3742.27" r="0.45" gradientTransform="matrix(-85.67, 326.22, 326.21, 85.69, -1388194.78, 304896.28)" xlink:href="#radial-gradient"/><radialGradient id="radial-gradient-26" cx="-1906.4" cy="3765.94" r="0.71" gradientTransform="matrix(-53.63, 204.04, 204.08, 53.59, -873334.26, 184848.06)" xlink:href="#radial-gradient"/><radialGradient id="radial-gradient-27" cx="-1924.89" cy="3741.65" r="0.45" gradientTransform="matrix(-85.67, 326.18, 326.22, 85.68, -1388155.44, 305462.36)" xlink:href="#radial-gradient"/><radialGradient id="radial-gradient-28" cx="-1907.01" cy="3767.61" r="0.71" gradientTransform="matrix(-53.64, 204.01, 204.1, 53.59, -873782.02, 184856.21)" xlink:href="#radial-gradient"/><radialGradient id="radial-gradient-29" cx="-1882.99" cy="3819.49" r="1.26" gradientTransform="matrix(-30.25, 115.49, 115.48, 30.34, -500600.06, 99358.54)" xlink:href="#radial-gradient"/><radialGradient id="radial-gradient-30" cx="-1926.1" cy="3731.19" r="0.33" gradientTransform="matrix(-114.76, 437.93, 438.23, 115.03, -1858774.9, 412319.8)" xlink:href="#radial-gradient"/><radialGradient id="radial-gradient-31" cx="-1885.04" cy="3815.55" r="1.26" gradientTransform="matrix(-30.23, 115.5, 115.59, 30.34, -500577.76, 99717.86)" xlink:href="#radial-gradient"/><radialGradient id="radial-gradient-32" cx="-1926.82" cy="3731.52" r="0.33" gradientTransform="matrix(-114.76, 438.07, 438.2, 115.07, -1858883.58, 412724.51)" xlink:href="#radial-gradient"/><radialGradient id="radial-gradient-33" cx="-1934.88" cy="3700.18" r="0.08" gradientTransform="matrix(284.34, 0, 0, -284.24, 550227.07, 1051809.34)" gradientUnits="userSpaceOnUse"><stop offset="0" stop-color="#006f52"/><stop offset="0.27" stop-color="#006f52"/><stop offset="0.55" stop-color="#00664b"/><stop offset="0.76" stop-color="#004d39"/><stop offset="0.91" stop-color="#04261d"/><stop offset="1"/></radialGradient><radialGradient id="radial-gradient-34" cx="-1934.9" cy="3700.16" r="0.21" gradientTransform="matrix(284.34, 0, 0, -284.24, 550233.53, 1051803.14)" gradientUnits="userSpaceOnUse"><stop offset="0" stop-color="#1fb78a"/><stop offset="0.03" stop-color="#1fb78a"/><stop offset="0.12" stop-color="#00b486"/><stop offset="0.36" stop-color="#009c73"/><stop offset="0.6"/><stop offset="0.77"/><stop offset="1" stop-color="#061613"/><stop offset="1"/></radialGradient></defs><g id="Group_296" data-name="Group 296" class="cls-1"><g id="Group_294" data-name="Group 294"><path id="Path_2316" data-name="Path 2316" class="cls-2" d="M27.37,57.71c.07-.28.16-.55.25-.81l1.14-3.59c.39-1,.68-1.59.68-1.6l0-.08.08,0s1.34-.4,2.62-.7l1.76-.4s.48-.1.74-.13l1-1.76c.11-.19.22-.39.34-.62.21-.38.44-.82.73-1.25l2.12-3a6.23,6.23,0,0,1,.51-.62l.28-.33L41,41.11a10.1,10.1,0,0,1,1-1.14l.41-.39.25.25-.42.4a11.76,11.76,0,0,0-1,1.11L39.9,43l-.28.33c-.16.19-.33.38-.48.59l-2.12,3c-.27.42-.49.83-.71,1.23-.13.22-.24.43-.35.63l-1.09,1.94-.1,0c-.09,0-.39.05-.76.13s-1.12.24-1.76.4c-1.09.26-2.22.58-2.52.67-.09.19-.33.75-.63,1.5L28,57a13,13,0,0,0-.5,1.93l-.69,3.34a4.33,4.33,0,0,0,.28.44l.75,1.11L29,65.41,28.79,67c0,.58,0,1.3,0,2,0,.44,0,.9,0,1.35a19.2,19.2,0,0,0,.13,2.73l.06.66.15,1.62-.32.44c-.15.2-.28.4-.41.6l-.59,1,.34,1.74c0,.19.08.39.12.61A8.61,8.61,0,0,0,28.5,81l.62,2.09c.08.24.15.49.23.75.12.44.26.87.42,1.3l1.43,3.53-.17.54-.26,1-.34,1.49,1.13,2.16L33,96.07c.15.21.29.43.44.66a15.16,15.16,0,0,0,1.23,1.74l.4.5a34.76,34.76,0,0,0,3.16,3.69l1.71,1.77a5.83,5.83,0,0,0,.59,0l1.5,0c1.06,0,2.1,0,2.11,0h.07l1.12,1c.42.31,1,.69,1.54,1.09l1,.67.49.34c.3.21.57.41.86.58l2.41,1.35,1.81-.45,1.93-.65,1.1.48a7.27,7.27,0,0,1,.68.29,9.55,9.55,0,0,0,1.61.62l3.47,1.1-.11.35-3.46-1.11a10,10,0,0,1-1.65-.63l-.67-.29-1-.43-1.81.62-2,.48L49,108.39c-.3-.19-.59-.39-.88-.6l-.49-.34-1-.68c-.57-.4-1.11-.77-1.55-1.1l-1-.87c-.25,0-1.14,0-2.06,0l-1.5,0c-.42,0-.68,0-.69,0h-.06l-1.79-1.85a37.67,37.67,0,0,1-3.19-3.72l-.39-.5a15.76,15.76,0,0,1-1.26-1.77c-.15-.22-.29-.44-.43-.66L31.25,94.1l-1.2-2.29.64-2.67.14-.43L29.44,85.3A12.3,12.3,0,0,1,29,84c-.07-.25-.15-.5-.22-.74l-.62-2.09a9,9,0,0,1-.3-1.27c0-.21-.07-.4-.11-.59l-.37-1.89.66-1.09a6.88,6.88,0,0,1,.42-.63l.24-.33-.14-1.48c0-.21,0-.43-.06-.66a17.21,17.21,0,0,1-.13-2.78V69.07c0-.76,0-1.48,0-2.08l.16-1.48L27.51,64l-.76-1.11c-.11-.17-.22-.35-.32-.53l0-.06.72-3.46C27.19,58.49,27.27,58.1,27.37,57.71Z"/><path id="Path_2317" data-name="Path 2317" class="cls-3" d="M62.13,110.83l4.16.87,1.49.16.94.1.91.1a9.67,9.67,0,0,0,1.53.11l3.67,0,.65-.06.06.07s.84,1,1.75,2c.75.81,1.55,1.6,1.84,1.88l.39,0c.18,0,.42-.07.69-.13l.51-.1,1.13-.22c.79-.15,1.69-.31,2.56-.53l3.6-1.08a5.85,5.85,0,0,0,.83-.3l.33-.13.37-.15.84-1.65.84-1.76.07,0a2.21,2.21,0,0,0,.35-.16l1-.53,1-.5c.63-.33,1.35-.69,2-1.11l2.87-1.87a5.84,5.84,0,0,0,.64-.47l.25-.2.39-.31,1.27.08,1.16.06.35-.27a2,2,0,0,1,.2-.16,8.78,8.78,0,0,0,.79-.7q.42-.39.9-.87c.63-.6,1.33-1.28,2-2l2.63-3.09a8.77,8.77,0,0,0,.56-.76l.22-.32.32-.46,1.61-.42,1.51-.42a4.19,4.19,0,0,0,.34-.51l2.14-3.83c.26-.55.51-1.13.77-1.75l.41-.93a31.54,31.54,0,0,0,1.57-4.27c.1-.32.19-.62.29-.91a17.09,17.09,0,0,0,.64-2.33c-.12-.22-.55-1-1-1.85l-1-1.74-.1,0,0-.17a8.92,8.92,0,0,0,.2-1.36l.32-3.07a9.25,9.25,0,0,0,.07-1.39v-3A16.94,16.94,0,0,0,116.7,67L115,65.42l.25,0a51.54,51.54,0,0,0-1.26-6.84l.13-.08,0-.21.19.07a46.48,46.48,0,0,1,1.34,7.15l1.38,1.24a17.84,17.84,0,0,1,1.37,1.38l.08,0v3.21a9.93,9.93,0,0,1-.08,1.44L118,75.84a10.05,10.05,0,0,1-.19,1.34c.12.22.57,1,1,1.76s1,1.9,1,1.91l.08.14-.08.05a16.18,16.18,0,0,1-.65,2.36c-.09.28-.19.58-.28.89a31.52,31.52,0,0,1-1.6,4.32c-.13.3-.26.62-.4.92-.26.62-.51,1.21-.79,1.78L114,95.15c-.36.6-.44.68-.54.67l-1.52.43-1.49.38-.25.36-.21.31a8.9,8.9,0,0,1-.58.79l-2.64,3.1c-.7.7-1.41,1.38-2,2-.32.32-.62.6-.9.87a7,7,0,0,1-.82.72l-.2.16-.45.35-2.44-.13-.28.22-.24.19a4.1,4.1,0,0,1-.68.5l-2.86,1.86c-.69.43-1.42.8-2.07,1.13l-1,.5-1,.52a2.26,2.26,0,0,1-.35.17l-.77,1.61-.9,1.79-.5.2A2.58,2.58,0,0,0,89,114a6.55,6.55,0,0,1-.88.31l-3.6,1.08c-.9.22-1.79.39-2.59.54l-1.13.22-.51.1-.72.13-.57,0,0-.06c-.26-.25-1.12-1.09-1.92-2s-1.49-1.65-1.7-1.9l-.48,0-3.69,0a10.28,10.28,0,0,1-1.57-.12c-.3,0-.59-.07-.89-.09l-1-.1c-.51,0-1-.1-1.52-.17L62,111.16Z"/><path id="Path_2318" data-name="Path 2318" class="cls-4" d="M24.58,56.92a50.67,50.67,0,0,1,3.33-9.11,51.06,51.06,0,0,1,6.44-10l.95-1.11c.48-.57.89-1,1.21-1.4l.86-.83.53.55-.84.81c-.31.33-.7.8-1.18,1.37l-1,1.11a51.29,51.29,0,0,0-6.33,9.79A51.26,51.26,0,0,0,24,63.94a48.34,48.34,0,0,0,1.39,18.77,49.54,49.54,0,0,0,8.35,16.87,47.34,47.34,0,0,0,12,11.22,18.63,18.63,0,0,0,2.32,1.44l.65.37c.35.18.69.38,1,.57.59.34,1.16.65,1.71.9l2.55,1.1.76.33a8.43,8.43,0,0,0,1.37.53l4.28,1.36-.23.73-4.26-1.35a9.32,9.32,0,0,1-1.47-.57c-.24-.11-.49-.22-.75-.32l-2.55-1.11a18,18,0,0,1-1.79-.94c-.33-.19-.67-.38-1-.56l-.65-.36a20.35,20.35,0,0,1-2.4-1.48,48,48,0,0,1-12.17-11.39,50.11,50.11,0,0,1-8.48-17.14,49.42,49.42,0,0,1-1.42-19.06A56.5,56.5,0,0,1,24.58,56.92Z"/><path id="Path_2319" data-name="Path 2319" class="cls-5" d="M21.6,59.85l3,.63-.1.51c0,.09-.05.24-.09.41s-.13.57-.18.93-.09.88-.15,1.44c-.12,1.07-.26,2.29-.35,3.68a51.51,51.51,0,0,0,1.72,15.24l.72,2.41a11.34,11.34,0,0,0,.5,1.49l1.58,3.86,2.33,4.38,1.22,1.88a30.16,30.16,0,0,0,2.52,3.5L35.73,102a2.92,2.92,0,0,0,.23.29l-2.2,2.14c-.17-.18-.32-.36-.46-.54l-1.38-1.73a32.91,32.91,0,0,1-2.73-3.8l-1.57-2.46-2.19-4.21L23.85,87.8A15.21,15.21,0,0,1,23.22,86l-.73-2.43a55.1,55.1,0,0,1-1.84-16.27c.11-1.49.25-2.79.37-3.84.05-.54.11-1,.15-1.46s.15-.92.22-1.23a3,3,0,0,0,.07-.34Z"/><path id="Path_2320" data-name="Path 2320" class="cls-6" d="M37.36,34.52l2.49-2.41,3.71-2.95c.27-.19.53-.35.8-.53l3.08-2c.63-.36,1.29-.7,2-1L50.56,25a50.93,50.93,0,0,1,16-4.9,49.78,49.78,0,0,1,36.32,9.52,51.48,51.48,0,0,1,11.51,12.1l.71,1.11c.42.64.82,1.25,1.18,1.86L118,47.94c.14.28.29.55.42.82l1.86,4.64.92,3.09-.73.22-1-3.31-1.76-4.32c-.12-.24-.25-.51-.4-.78L115.6,45c-.35-.58-.74-1.18-1.16-1.8-.23-.37-.48-.73-.71-1.11A50.47,50.47,0,0,0,102.4,30.21a49,49,0,0,0-35.76-9.38,50.15,50.15,0,0,0-15.72,4.82l-1.17.61c-.66.34-1.3.67-1.9,1l-3.07,2-.75.49-3.8,3.05-2.32,2.24Z"/><path id="Path_2321" data-name="Path 2321" class="cls-7" d="M62.55,18.47,64.83,18a7.94,7.94,0,0,1,.83-.13l4.2-.4A56,56,0,0,1,86.18,19.1a56.2,56.2,0,0,1,15,6.57l3.51,2.44a6.05,6.05,0,0,1,.68.55l1.77,1.5-2,2.34-1.51-1.29c-.07-.06-.18-.14-.28-.24s-.27-.23-.43-.35l-3.43-2.38a53.24,53.24,0,0,0-14-6.16,53.46,53.46,0,0,0-15.32-1.52L66,21a5.27,5.27,0,0,0-.52.1l-.4.07-1.92.38Z"/><path id="Path_2322" data-name="Path 2322" class="cls-8" d="M60.4,117.38l4.37.92a9.25,9.25,0,0,0,1.48.21l.83.09,2.75.29a17.77,17.77,0,0,0,1.93,0h1.93a16.1,16.1,0,0,0,2.69-.11,47.44,47.44,0,0,0,16-3.89,49.64,49.64,0,0,0,15.56-10.6,48.61,48.61,0,0,0,10.42-15.67,51.1,51.1,0,0,0,3.76-16A50.69,50.69,0,0,0,121.41,61c-.11-.52-.2-1-.28-1.44-.14-.72-.26-1.33-.37-1.78l-.33-1.11.74-.22.34,1.12c.11.5.23,1.11.37,1.84.08.44.18.92.28,1.43a51.79,51.79,0,0,1,.73,11.82A52.14,52.14,0,0,1,119.07,89a49.26,49.26,0,0,1-10.58,15.92,50.25,50.25,0,0,1-15.8,10.76,47.81,47.81,0,0,1-16.23,4,19.83,19.83,0,0,1-2.78.11H71.77a16.87,16.87,0,0,1-2-.06L67,119.36l-.81-.08A9.43,9.43,0,0,1,64.6,119l-4.35-.91Z"/><path id="Path_2323" data-name="Path 2323" class="cls-9" d="M88.15,117.12l1-.91.33-.13,2.12-.86a28.74,28.74,0,0,0,3.86-1.79l3-1.65,3.21-2.09,3.23-2.56a9.36,9.36,0,0,0,1.2-1.07l1.84-1.78a51.28,51.28,0,0,0,9-12.45c.57-1.22,1.06-2.35,1.48-3.35q.33-.78.6-1.38c.1-.28.2-.58.27-.83s.1-.32.14-.44l.15-.46,2.93.93-.16.49c0,.14-.08.25-.12.37-.09.31-.21.69-.37,1.12s-.4.91-.61,1.41c-.41,1-.93,2.18-1.55,3.49a54.66,54.66,0,0,1-9.58,13.29l-1.85,1.79a14.48,14.48,0,0,1-1.49,1.32l-3.35,2.64-5,3.13-1.5.78a34.67,34.67,0,0,1-4.2,1.94l-2.08.84a4.19,4.19,0,0,1-.59.22l-.47-1.46Z"/><path id="Path_2324" data-name="Path 2324" class="cls-10" d="M59.63,113l.15-.44,1.76.56-.14.44Z"/><path id="Path_2325" data-name="Path 2325" class="cls-11" d="M53.06,110.51l.19-.42.27.11,2.15.93-.18.43-2.15-.93Zm4.07,1.74.14-.44.84.26-.14.45Z"/><path id="Path_2326" data-name="Path 2326" class="cls-12" d="M28.47,60.84l.46.09-.1.46c0,.14-.06.31-.1.49a9.56,9.56,0,0,0-.23,1.3l0,.32-.46,0c0-.11,0-.22,0-.32a12.51,12.51,0,0,1,.25-1.36c0-.18.07-.34.1-.48Zm-.66,4.36.46.06q0,.42-.09.87l-.46,0C27.75,65.78,27.77,65.48,27.81,65.2Zm-.22,2.65.46,0c0,.64,0,1.25,0,1.86s0,1.08,0,1.64h-.46c0-.56,0-1.11,0-1.65s0-1.22,0-1.88Zm.09,4.86.46,0c.06.86.14,1.74.25,2.61l-.46.06c-.11-.88-.2-1.77-.25-2.64Zm.51,4.39.45-.08.15.87-.45.08q-.09-.43-.15-.87Zm.5,2.61.46-.11c.25,1.15.55,2.29.89,3.39l-.45.13c-.34-1.1-.64-2.26-.9-3.41ZM30,84.39l.44-.15c.28.82.58,1.65.91,2.46l-.43.18c-.33-.82-.64-1.65-.92-2.49Zm1.62,4.11.43-.2.33.7,0,.08L32,89.3,32,89.21c-.12-.24-.23-.48-.34-.71Zm1.2,2.36.41-.21a24.39,24.39,0,0,0,1.74,3l-.38.27a27,27,0,0,1-1.77-3.08ZM35.31,95l.39-.26L36.47,96l.75,1-.36.29L35.93,96Zm2.63,3.54.38-.28a8.49,8.49,0,0,0,.55.67l-.36.3Q38.21,98.93,37.94,98.57Zm1.76,2,.33-.32.64.65.67.7.81.83c.1.1.22.2.34.3l-.3.36-.37-.33-.81-.84-.68-.7c-.21-.21-.42-.42-.63-.65ZM43.2,104l.3-.36,1.1.94c.28.26.57.5.9.76l-.28.37c-.35-.27-.65-.52-.93-.78Zm3.47,2.73.26-.39.65.46.07,0-.27.38-.07-.05c-.21-.16-.42-.3-.64-.45Zm2.18,1.5.25-.4c.33.21.61.37.86.5l2.2,1.22-.23.41-2.19-1.22a7.86,7.86,0,0,1-.89-.51Z"/><path id="Path_2327" data-name="Path 2327" class="cls-13" d="M29,58.2l.46.1-.39,1.81L28.64,60Z"/><path id="Path_2328" data-name="Path 2328" class="cls-14" d="M29,58.18l.56-1.76.44.14-.56,1.76Z"/><path id="Path_2329" data-name="Path 2329" class="cls-15" d="M30.11,54.76l.27-.84.45.14-.27.84Zm1-2.49L32,50.14c0-.11.08-.2.12-.29l.42.19-.11.27-.93,2.15Z"/><path id="Path_2330" data-name="Path 2330" class="cls-16" d="M32.72,48.71l1.22-2.18a7.08,7.08,0,0,1,.51-.89l.4.25a8.72,8.72,0,0,0-.5.86l-1.23,2.19Zm2.73-4.54,0-.07.45-.64.38.26c-.15.23-.3.44-.45.64l-.06.08ZM37,42a8.73,8.73,0,0,1,.78-.93l.93-1.1.36.3-.95,1.11c-.25.27-.49.56-.75.89Zm2.57-3c.1-.13.21-.25.32-.37l.84-.81.7-.68c.21-.21.43-.43.65-.63l.32.33-.65.63-.7.68-.83.81c-.1.1-.21.22-.31.34Zm3.82-3.69.69-.56.29.36c-.23.18-.46.36-.67.55Zm2.08-1.64,1.21-.93,1-.62.25.39-1.17.76-1,.76Zm3.25-2.27a25.34,25.34,0,0,1,3.08-1.77L52,30a25.94,25.94,0,0,0-3,1.74Zm4.64-2.58.08-.05.72-.34.2.42-.7.34-.08,0Zm2.42-1.09c.81-.33,1.65-.65,2.49-.93l.15.44c-.83.28-1.65.59-2.46.92Zm3.75-1.34c1.12-.33,2.26-.63,3.42-.89l.11.45c-1.15.25-2.29.55-3.39.89Zm5.15-1.25.87-.15.08.46-.87.15Zm2.63-.4c.88-.12,1.77-.2,2.64-.26l0,.46c-.86.06-1.74.15-2.62.26Zm4-.33c.57,0,1.12,0,1.65,0s1.23,0,1.89,0l0,.47c-.64,0-1.25,0-1.86,0s-1.08,0-1.63,0Zm5.3.11.88.09,0,.47c-.28,0-.57-.07-.87-.09Zm2.63.29.31,0a10.61,10.61,0,0,1,1.37.24l.48.1.46.1-.09.45-.46-.09-.5-.11a11.41,11.41,0,0,0-1.3-.23l-.32,0Z"/><path id="Path_2331" data-name="Path 2331" class="cls-17" d="M82.61,25.43l1.81.37-.09.46-1.81-.38Z"/><path id="Path_2332" data-name="Path 2332" class="cls-18" d="M84.3,26.25l.15-.44,1.76.56-.14.44Z"/><path id="Path_2333" data-name="Path 2333" class="cls-19" d="M87.73,27.34l.14-.44.84.26-.14.45Zm2.44.94.18-.43,2.14.92.29.12-.2.43-.27-.12Z"/><path id="Path_2334" data-name="Path 2334" class="cls-20" d="M93.69,29.91l.23-.41,2.18,1.22a9.76,9.76,0,0,1,.89.51l-.25.4a9.66,9.66,0,0,0-.86-.5Zm4.49,2.71.27-.38.08,0c.2.15.42.29.63.44l-.26.39-.65-.45Zm2.16,1.51.28-.37a10.88,10.88,0,0,1,.93.77l1.1.94-.3.35-1.11-.94c-.28-.25-.57-.5-.9-.75Zm3,2.55.3-.36.37.33.81.84.67.69.64.66-.33.32-.64-.66-.67-.7-.81-.83-.34-.29ZM107,40.45l.35-.3c.2.22.38.45.57.69l-.38.28c-.17-.23-.35-.45-.54-.67Zm1.64,2.06.36-.29.93,1.21.62,1-.39.25-.76-1.17Zm2.25,3.24.38-.27A24.08,24.08,0,0,1,113,48.56l-.42.21a24.32,24.32,0,0,0-1.73-3Zm2.54,4.58.42-.22,0,.09c.12.24.23.48.34.72l-.42.2-.33-.7Zm1.08,2.38.43-.18c.33.82.64,1.66.93,2.5l-.44.15c-.28-.84-.59-1.67-.92-2.47Zm1.32,3.72.44-.14c.34,1.11.64,2.26.9,3.42l-.46.1c-.25-1.15-.55-2.29-.88-3.38Zm1.24,5.09.45-.08q.09.44.15.87l-.46.08c0-.29-.09-.58-.14-.87Zm.4,2.6.46-.06c.11.89.2,1.77.25,2.64l-.46,0c-.06-.86-.14-1.73-.25-2.61Zm.32,3.92h.47c0,.56,0,1.11,0,1.65s0,1.23,0,1.89l-.46,0c0-.64,0-1.25,0-1.86s0-1.09,0-1.65Zm-.11,5.25.46,0c0,.3-.05.6-.09.88l-.46-.06c0-.27.06-.57.09-.87Zm-.28,2.62.46,0,0,.32a10.77,10.77,0,0,1-.24,1.36c0,.18-.08.33-.1.48l-.1.46-.46-.09L117,78a4.68,4.68,0,0,1,.11-.5,11.24,11.24,0,0,0,.23-1.29C117.36,76.13,117.36,76,117.38,75.91Z"/><path id="Path_2335" data-name="Path 2335" class="cls-21" d="M116.74,79.3l.46.09-.37,1.82-.46-.1Z"/><path id="Path_2336" data-name="Path 2336" class="cls-22" d="M115.81,82.85l.56-1.76.44.14L116.26,83Z"/><path id="Path_2337" data-name="Path 2337" class="cls-23" d="M113.3,89.37c0-.08.07-.17.12-.27l.92-2.15.43.19-.92,2.13-.12.29Zm1.72-4,.27-.84.44.14-.27.84Z"/><path id="Path_2338" data-name="Path 2338" class="cls-24" d="M64.15,113.71l.46.09.49.1a11.86,11.86,0,0,0,1.3.24l.32,0,0,.47-.32,0c-.46-.06-.91-.14-1.36-.24a3.76,3.76,0,0,0-.48-.1l-.47-.1Zm4.32.64.87.1,0,.46-.88-.09Zm2.62.22c.64,0,1.25,0,1.86,0s1.08,0,1.63,0l0,.46c-.57,0-1.12,0-1.65,0s-1.23,0-1.89,0Zm4.8-.08c.86-.06,1.74-.15,2.62-.26l0,.47c-.88.11-1.77.19-2.64.25Zm4.35-.51.87-.15.08.46-.87.15Zm2.58-.5c1.15-.25,2.29-.56,3.39-.89l.13.44c-1.11.34-2.26.65-3.42.9Zm4.63-1.29c.83-.28,1.66-.59,2.46-.92l.18.44c-.81.33-1.65.64-2.49.92Zm4.07-1.61.7-.34.07,0,.22.41-.08,0-.72.34Zm2.34-1.19a24.39,24.39,0,0,0,3-1.74l.27.38a23,23,0,0,1-3.08,1.77ZM98,106.92l1.18-.76,1-.76.29.37-1.21.92-.94.62Zm3.51-2.6.67-.55.31.35-.69.56Zm2-1.73.65-.63.7-.68.83-.8c.1-.11.2-.23.31-.34l.35.3-.33.36-.84.82-.69.67c-.21.22-.43.42-.65.64Zm3.34-3.46.94-1.11a9.75,9.75,0,0,0,.75-.89l.37.27a10,10,0,0,1-.77.93l-.93,1.1Zm2.7-3.43.45-.65L110,95l.38.27-.06.08c-.15.2-.3.41-.44.63ZM111,93.53a6.59,6.59,0,0,0,.49-.86l1.22-2.19.41.22-1.22,2.19a8.85,8.85,0,0,1-.51.89Z"/><path id="Path_2339" data-name="Path 2339" class="cls-25" d="M61.51,113.15l1.82.38-.1.45-1.81-.37Z"/><path id="Path_2340" data-name="Path 2340" class="cls-26" d="M19.8,57.21l.5.11-.42,2-.5-.1Zm-.84,4,.5.09,0,.13-.19,1.88-.51,0Zm-.44,4.09.51.05-.09.89a8.68,8.68,0,0,0-.07,1.13h-.51a11.5,11.5,0,0,1,.07-1.18Zm-.17,4.12h.51v2h-.51Zm.12,4.11.51,0,.19,2-.51,0Zm.4,4.09.51-.08c0,.26.1.54.15.8s.09.42.13.63l.11.57-.51.1-.11-.57L19,78.46c-.06-.27-.11-.54-.16-.82Zm.79,4,.5-.1.2,1c.08.3.17.62.26.94l-.49.13-.27-1Zm1.05,4,.49-.16c.2.65.42,1.29.65,1.94l-.48.17q-.35-1-.66-2Zm1.38,3.88.47-.19q.38.95.78,1.89l-.47.2C22.6,90.81,22.34,90.18,22.09,89.54Zm1.62,3.78.47-.22c.29.62.59,1.22.89,1.83l-.45.24c-.31-.62-.62-1.24-.91-1.85ZM25.6,97l.44-.26.16.29q.43.72.9,1.44l-.43.28c-.32-.48-.62-1-.91-1.46Zm2.21,3.46.43-.3c.38.57.78,1.12,1.19,1.66l-.41.31c-.41-.55-.81-1.11-1.21-1.67Zm2.47,3.3.4-.32c.42.53.85,1,1.29,1.57l-.38.33C31.14,104.81,30.7,104.28,30.28,103.75ZM33,106.87l.37-.34c.47.5.93,1,1.4,1.48l-.36.36q-.72-.74-1.41-1.5Zm2.89,2.94.33-.39,1.56,1.33-.33.38ZM39,112.47l.33-.39c.25.21.5.42.76.61l.86.6-.29.42-.87-.6C39.47,112.9,39.22,112.69,39,112.47Zm3.34,2.41.29-.42,1.66,1.15-.24.45-.29-.19Zm3.49,2.18.25-.45.87.49c.32.16.62.34.92.51l-.26.45c-.29-.17-.59-.35-.9-.51ZM49.43,119l.2-.46,1.88.81-.2.47Zm3.76,1.63.2-.47.5.22,1.41.44-.16.49-1.43-.46Zm3.91,1.3.16-.48,2,.62-.16.48Z"/><path id="Path_2341" data-name="Path 2341" class="cls-27" d="M20.09,55.83l.62-1.95.49.16-.62,2Zm1.23-3.9.46-1.43L22,50l.47.2-.22.5-.44,1.41Zm1.5-3.84.81-1.88.47.2-.81,1.88Zm1.75-3.73c.17-.29.34-.59.51-.91l.49-.88.44.25-.48.88c-.17.31-.35.61-.51.91Zm2-3.57.19-.29,1-1.42.42.29L27,41Zm2.35-3.39.6-.87c.21-.27.42-.53.64-.78l.39.33c-.22.25-.43.49-.62.75l-.59.87Zm2.57-3.21,1.33-1.56.39.33-1.33,1.56Zm2.77-3,1.49-1.41.35.37-1.48,1.4Zm3-2.77c.52-.44,1-.88,1.58-1.31l.32.4c-.53.42-1.06.85-1.57,1.29Zm3.21-2.57c.55-.41,1.11-.81,1.67-1.2l.29.42c-.56.39-1.11.79-1.66,1.19Zm3.38-2.34c.48-.32,1-.62,1.47-.91l.29-.17.26.44-.29.17-1.44.89Zm3.58-2.05c.61-.32,1.22-.62,1.84-.91l.22.46q-.91.43-1.83.9Zm3.72-1.76c.63-.27,1.27-.53,1.9-.78l.18.48c-.63.25-1.26.5-1.88.78ZM55,18.15c.65-.23,1.3-.44,1.95-.65l.15.48-1.93.65Zm3.92-1.24c.32-.1.64-.18,1-.26L61,16.44l.1.5-1,.2-.94.26Zm4-.86.58-.11.62-.12.82-.16.09.5-.8.16-.64.12-.57.11Zm4.09-.6v0l2-.19,0,.51-2,.19Zm4.1-.32h2v.51h-2Zm4.09,0a9.34,9.34,0,0,1,1.18.07l.89.09-.06.51-.89-.09a10.37,10.37,0,0,0-1.12-.06Zm4.11.38,2.05.23-.1.5-.12,0L79.29,16Zm4.06.64,2,.42-.1.5-2-.42Z"/><path id="Path_2342" data-name="Path 2342" class="cls-28" d="M86.64,17.36l.15-.49,1.95.62-.15.49Zm3.9,1.24.16-.49,1.43.46.52.22-.2.47-.5-.21Zm3.79,1.47.21-.46,1.88.81-.21.47ZM98,21.8l.25-.45c.3.17.6.35.91.51l.88.48-.24.46-.88-.49c-.31-.16-.62-.34-.92-.51Zm3.58,2,.24-.45.29.19,1.43,1-.3.42Zm3.35,2.32.29-.42.87.61c.27.2.53.42.79.64l-.34.39c-.25-.22-.49-.43-.75-.62Zm3.17,2.54.33-.39L110,29.6l-.33.39Zm3,2.74.37-.36q.7.74,1.41,1.5l-.38.34c-.46-.5-.93-1-1.4-1.48Zm2.75,3,.38-.33c.45.52.88,1.05,1.31,1.58l-.4.32c-.42-.52-.85-1-1.29-1.57Zm2.54,3.19.42-.3c.41.55.81,1.1,1.19,1.66l-.42.29c-.39-.55-.78-1.11-1.19-1.65ZM118.74,41l.43-.28c.31.48.61,1,.91,1.47l.16.29-.44.26-.16-.29c-.29-.49-.6-1-.9-1.45Zm2,3.53.46-.23c.31.61.62,1.23.91,1.85l-.46.22C121.37,45.7,121.08,45.09,120.76,44.48Zm1.74,3.69L123,48c.27.63.53,1.27.78,1.9l-.47.18c-.25-.62-.51-1.25-.78-1.88ZM124,52l.48-.17c.23.65.45,1.29.65,2l-.49.16c-.19-.65-.41-1.3-.64-1.94Zm1.23,3.89.5-.14c.09.32.17.64.26,1l.2,1-.5.1-.2-1c-.08-.3-.16-.62-.26-.94Zm.86,4,.5-.1.11.58.12.62c.06.28.11.55.16.82l-.51.09c0-.26-.1-.53-.15-.8l-.12-.63Zm.59,4,.51-.05.19,2-.51,0Zm.31,4.05h.52v2H127ZM127,72h.51a9.34,9.34,0,0,1-.07,1.18l-.09.88-.51,0,.09-.89A10.55,10.55,0,0,0,127,72Zm-.38,4,.51.06-.23,2.06-.5-.1,0-.13Zm-.64,4,.5.1-.41,2-.5-.11Z"/><path id="Path_2343" data-name="Path 2343" class="cls-29" d="M60.53,122.33l2,.42-.1.49-2-.41Zm4,.83.13,0,1.89.19,0,.51-2.07-.23Zm4,.44.89.09a10.55,10.55,0,0,0,1.13.06v.51a7.71,7.71,0,0,1-1.18-.07l-.89-.09Zm4.06.16h2v.51h-2Zm4.07-.11,2-.19,0,.51,0-.26,0,.26-2,.19Zm4.06-.4.8-.15.63-.12.57-.11.1.5-.58.11-.62.12-.82.16Zm4-.78,1-.2.94-.26.14.49c-.32.1-.64.18-1,.27l-1,.2Zm3.93-1,1.93-.65.18.48c-.65.23-1.3.44-2,.65Zm3.85-1.37c.63-.24,1.25-.5,1.88-.78l.21.47c-.63.27-1.27.54-1.9.78Zm3.74-1.61c.62-.29,1.22-.59,1.83-.9l.24.45c-.62.32-1.23.62-1.85.91Zm3.63-1.87.29-.16,1.44-.89.28.42c-.48.32-1,.62-1.47.91l-.29.16Zm3.43-2.19c.56-.39,1.11-.79,1.66-1.19l.31.41c-.55.4-1.11.81-1.67,1.2Zm3.27-2.44c.53-.42,1.06-.86,1.57-1.3l.33.39L107,112.35Zm3.1-2.64c.51-.47,1-.93,1.49-1.41l.35.37c-.48.47-1,.94-1.49,1.41Zm2.89-2.85L114,104.9l.39.33L113,106.79Zm2.66-3.13c.21-.24.42-.49.61-.75l.6-.86.42.29-.6.87c-.2.28-.42.53-.64.79Zm2.39-3.29,1.14-1.66.45.25-.19.29-1,1.42Zm2.15-3.46.48-.87c.16-.31.34-.62.51-.92l.45.26c-.17.29-.34.59-.51.91l-.49.87ZM121.74,93l.81-1.89.47.21-.81,1.88Zm1.62-3.76.22-.51.44-1.4.49.15-.46,1.44-.22.52Zm1.29-3.86.62-2,.49.16-.62,2Z"/><path id="Path_2344" data-name="Path 2344" class="cls-30" d="M24.92,102.55a.41.41,0,0,1,.16-.23.41.41,0,0,1,.29,0,.38.38,0,0,1,.24.17l.23.36c.05.06.08.12.13.19s.15.23.24.37a.39.39,0,0,1-.1.53.38.38,0,0,1-.52-.09l-.28-.41a1,1,0,0,0-.11-.17l-.23-.37A.36.36,0,0,1,24.92,102.55Zm5.78,7.07h0a.44.44,0,0,1,.1-.19.54.54,0,0,1,.27-.11.41.41,0,0,1,.28.13.39.39,0,0,1,0,.54.38.38,0,0,1-.54,0h0a0,0,0,0,1,0,0,.38.38,0,0,1-.09-.35ZM38,116.13a.61.61,0,0,1,0-.12.46.46,0,0,1,.26-.16.48.48,0,0,1,.28.06l.29.19,3,2.05a11.72,11.72,0,0,0,1.4.87l0,0c.49.26,1,.53,1.42.79l.09,0,1.07.6c.61.34,1.19.67,1.76.94s1.27.55,1.86.81l1,.41,2.12.92c.42.15.83.28,1.19.39l.59.18,1.58.51a.38.38,0,0,1,.25.46v0a.38.38,0,0,1-.46.25h0l-1.59-.5-.56-.18c-.37-.11-.8-.24-1.27-.4v0l-1.5-.64-3.47-1.5c-.62-.3-1.22-.65-1.85-1l-1-.57-.8-.45-.76-.42a13,13,0,0,1-1.48-.9l-2.13-1.49-.82-.56-.29-.19a.37.37,0,0,1-.16-.42Z"/><path id="Path_2345" data-name="Path 2345" class="cls-31" d="M16.55,54.93A58.15,58.15,0,0,1,22.43,40.6a.32.32,0,0,1,.22-.17.39.39,0,0,1,.3,0,.4.4,0,0,1,.14.53A58.08,58.08,0,0,0,17.3,55.1l0,.09c-.31,1.17-.58,2.36-.82,3.58v.06c0,.13-.05.24-.08.36a.37.37,0,0,1-.43.31h0a.31.31,0,0,1-.24-.16.43.43,0,0,1-.07-.29l.09-.41v0C15.94,57.4,16.23,56.16,16.55,54.93ZM15.33,60.8a.38.38,0,0,1,.75.15v0a.38.38,0,0,1-.75-.11S15.32,60.82,15.33,60.8Zm-.67,8A.4.4,0,0,1,15,68.5a.36.36,0,0,1,.28.12.39.39,0,0,1,.11.27.39.39,0,0,1-.4.38.39.39,0,0,1-.37-.39h0S14.66,68.81,14.66,68.78Zm.68,9.79a.39.39,0,0,1,.32-.28.39.39,0,0,1,.28.06.4.4,0,0,1,.15.26l.15.9A56.58,56.58,0,0,0,20.31,93l.25.62v0c.51,1,1,1.94,1.37,2.66.14.26.27.5.38.72h0a.4.4,0,0,1-.17.51.39.39,0,0,1-.52-.17l-.37-.71c-.38-.74-.87-1.65-1.39-2.73h0l-.27-.67a57,57,0,0,1-4.1-13.58c-.06-.32-.1-.61-.15-.92a.38.38,0,0,1,0-.15ZM28,32.65a.28.28,0,0,1,.08-.15.38.38,0,0,1,.26-.14.39.39,0,0,1,.42.35.37.37,0,0,1-.09.28.4.4,0,0,1-.26.14.39.39,0,0,1-.41-.48Zm5.54-5.81a.39.39,0,0,1,.12-.19.38.38,0,0,1,.54,0,.41.41,0,0,1,0,.54.4.4,0,0,1-.55,0A.39.39,0,0,1,33.52,26.84Zm1.34-1.18a.56.56,0,0,1,.11-.2,58.35,58.35,0,0,1,16.87-10.1.35.35,0,0,1,.3,0,.39.39,0,0,1,.2.2.42.42,0,0,1-.22.51,57.07,57.07,0,0,0-16.65,10,.39.39,0,0,1-.54-.05.41.41,0,0,1-.07-.34Zm-12.44,73h0a.38.38,0,0,1,.7-.08.38.38,0,1,1-.67.36s0,0,0,0A.36.36,0,0,1,22.42,98.65ZM61,12.86a.36.36,0,0,1,.3-.27.37.37,0,0,1,.45.29A.38.38,0,0,1,61,13h0A.28.28,0,0,1,61,12.86ZM69,11.79a.38.38,0,0,1,.47-.27.41.41,0,0,1,.15.07.38.38,0,0,1,.13.25.39.39,0,0,1-.35.42h0a.51.51,0,0,1-.27-.09.46.46,0,0,1-.13-.27A.49.49,0,0,1,69,11.79Zm1.78-.08a.39.39,0,0,1,.38-.29h3.44a19.4,19.4,0,0,1,2.53.11l4.13.44a7.17,7.17,0,0,1,1.13.17l.16,0,.21,0h0a.49.49,0,0,1,.25.17.38.38,0,0,1-.4.58l-.38-.07a5.14,5.14,0,0,0-1-.16l-3.23-.34L77,12.3a16,16,0,0,0-2.5-.11H71.12a.38.38,0,0,1-.38-.38.19.19,0,0,1,0-.08Z"/><path id="Path_2346" data-name="Path 2346" class="cls-32" d="M89.64,14.31v0A.37.37,0,0,1,90.1,14h0l.15,0,1.44.46c.17,0,.36.12.56.17.38.11.8.25,1.26.41l0,0,2.28,1,1.39.61,1.3.55c.62.3,1.23.65,1.87,1l1,.56,1.51.84.06,0a11.74,11.74,0,0,1,1.48.91l2.94,2,.29.19a.38.38,0,0,1,.1.53.39.39,0,0,1-.53.11l-.27-.19-.16-.1-2.82-2a11,11,0,0,0-1.43-.89h0l-.8-.45-.7-.39L100,18.94c-.62-.34-1.19-.67-1.76-1l-2.83-1.22-2.12-.91c-.43-.15-.83-.29-1.2-.39l-.58-.19c-1-.32-1.56-.49-1.57-.49A.41.41,0,0,1,89.64,14.31ZM114.41,29.6a.35.35,0,0,1,.09-.17.41.41,0,0,1,.28-.11.35.35,0,0,1,.27.11.39.39,0,0,1,0,.55.57.57,0,0,1-.28.11.36.36,0,0,1-.26-.12.36.36,0,0,1-.09-.37Zm5.16,6.14a.36.36,0,0,1,.16-.22.38.38,0,0,1,.53.1c.1.14.19.27.26.39l.12.19.23.36a.38.38,0,0,1-.11.53.37.37,0,0,1-.52-.11l-.24-.36a1.27,1.27,0,0,0-.13-.19c-.07-.12-.15-.24-.24-.37a.37.37,0,0,1-.06-.32Z"/><path id="Path_2347" data-name="Path 2347" class="cls-33" d="M62.82,126.71a.37.37,0,0,1,.44-.28h0l.4.08a5.82,5.82,0,0,0,1,.16l4.15.43a16.62,16.62,0,0,0,2.44.12h3.44a.39.39,0,0,1,.27.11.42.42,0,0,1,.12.28.4.4,0,0,1-.39.38H71.24a15,15,0,0,1-2.5-.12l-4.13-.44a7.32,7.32,0,0,1-1.13-.16l-.17,0-.19,0h0a.37.37,0,0,1-.29-.45h0Zm13.31.72a.38.38,0,0,1,.33-.29.35.35,0,0,1,.28.09.4.4,0,0,1,.14.27.38.38,0,0,1-.36.4.39.39,0,0,1-.41-.34.51.51,0,0,1,0-.13Zm8-1.09a.39.39,0,0,1,.48-.26l.11,0a.33.33,0,0,1,.15.24.39.39,0,0,1-.3.46.38.38,0,0,1-.29-.06.33.33,0,0,1-.15-.24A.31.31,0,0,1,84.08,126.34Zm9.41-2.74a.36.36,0,0,1,.23-.25,55.27,55.27,0,0,0,9.15-4.54,54.05,54.05,0,0,0,7.49-5.45.39.39,0,0,1,.52.58h0A58.31,58.31,0,0,1,94,124.06a.38.38,0,0,1-.49-.22A.39.39,0,0,1,93.49,123.6Zm29.2-83a.37.37,0,0,1,.19-.25.48.48,0,0,1,.29,0,.4.4,0,0,1,.22.2h0a.41.41,0,0,1-.18.51.38.38,0,0,1-.5-.16.34.34,0,0,1,0-.28Zm.82,1.58a.4.4,0,0,1,.2-.24.37.37,0,0,1,.5.15v0l.41.76c.38.73.85,1.62,1.36,2.68v0c.1.21.18.42.27.64a56.82,56.82,0,0,1,4.11,13.61c0,.29.09.61.14.91a.39.39,0,0,1-.32.44.38.38,0,0,1-.43-.31h0c0-.31-.09-.61-.16-.92a56.53,56.53,0,0,0-4.06-13.45l-.25-.61c-.51-1.06-1-2-1.38-2.69l-.37-.72h0a.57.57,0,0,1,0-.29Zm-11.92,70.23a.29.29,0,0,1,.11-.18.38.38,0,0,1,.53,0,.4.4,0,0,1,0,.55.37.37,0,0,1-.54,0,.38.38,0,0,1-.08-.37Zm5.53-5.8a1,1,0,0,1,.07-.15.47.47,0,0,1,.27-.14.33.33,0,0,1,.27.09.4.4,0,0,1,0,.55h0a.4.4,0,0,1-.53,0,.38.38,0,0,1-.13-.4Zm5.6-8a.32.32,0,0,1,0-.09,57.25,57.25,0,0,0,6.62-17.78c0-.14.06-.29.08-.44a.38.38,0,0,1,.43-.31h0a.38.38,0,0,1,.31.44c0,.08,0,.15-.05.22a1.92,1.92,0,0,0,0,.22,58.54,58.54,0,0,1-6.71,18,.38.38,0,0,1-.52.14.36.36,0,0,1-.18-.43Zm7.72-28.09a.38.38,0,1,1,.38.48h0a.38.38,0,0,1-.38-.39h0A.28.28,0,0,1,130.44,70.43Zm-.68,8a.39.39,0,0,1,.47-.28.4.4,0,0,1,.29.44.39.39,0,0,1-.44.32h0a.39.39,0,0,1-.32-.44.06.06,0,0,0,0,0Z"/></g></g><g id="Group_729" data-name="Group 729"><g id="Group_728" data-name="Group 728" class="cls-34"><path id="Path_2315" data-name="Path 2315" class="cls-35" d="M77.07,43v6.27l.2,0a12.17,12.17,0,0,1,8.58,19.14l-.14.2.21.12A12.19,12.19,0,0,1,79.66,91.4H77.07v6.2H71.9V91.4H67.62v6.2H62.46V91.4H52.88V84.83h6.69v-29H52.88V49.21h9.58V43h5.16v6.21h4.29V43h5.16M66.14,67h9.77a5.62,5.62,0,1,0,0-11.23H66.14V67m0,17.81H79.66a5.62,5.62,0,0,0,0-11.24H66.14V84.84M77.29,42.79H71.67V49H67.85V42.79H62.23V49H52.66v7h6.68V84.61H52.66v7h9.57v6.21h5.62V91.63h3.83v6.21H77.3V91.63h2.36A12.41,12.41,0,0,0,86,68.57a12.4,12.4,0,0,0-8.75-19.5V42.79Zm-10.92,24V56h9.54a5.39,5.39,0,0,1,0,10.78H66.37Zm0,17.81V73.83H79.65a5.39,5.39,0,0,1,0,10.78Z"/></g><path id="Path_2587" data-name="Path 2587" class="cls-36" d="M87.15,67.37a12.4,12.4,0,0,0-3-17.29,12.53,12.53,0,0,0-5.79-2.21V41.59H72.78v6.2H69v-6.2H63.34v6.2H53.77v7h6.68V83.41H53.77v7h9.57v6.21H69V90.43h3.82v6.21h5.62V90.43h2.36a12.42,12.42,0,0,0,6.39-23.06ZM77,54.82a5.39,5.39,0,1,1,.07,10.78H67.48V54.82Zm3.75,28.59H67.48V72.63H80.77a5.39,5.39,0,0,1,0,10.78Z"/></g></svg>